<svg width="510" height="131" viewBox="0 0 510 131" fill="none" xmlns="http://www.w3.org/2000/svg">
<path d="M158.296 129.407V0H27.7583V42.1328H87.0253L0 129.407H59.2672L117.784 70.7225V129.407H158.296Z" fill="white"/>
<path d="M190.861 3.03418V50.6385H179.995V3.03418H190.861ZM195.598 12.1661V3.03418H233.46V12.1661H219.745V50.6385H209.245V12.1661H195.598Z" fill="white"/>
<path d="M183.117 114.462C180.761 109.568 179.583 103.985 179.583 97.7142C179.583 91.4428 180.761 85.8605 183.117 80.9665C185.502 76.0436 189.006 72.161 193.629 69.3182C198.252 66.4759 203.669 65.0547 209.882 65.0547C216.096 65.0547 221.513 66.4759 226.136 69.3182C230.759 72.161 234.248 76.0436 236.604 80.9665C238.989 85.8605 240.181 91.4428 240.181 97.7142C240.181 103.985 238.989 109.568 236.604 114.462C234.248 119.355 230.759 123.223 226.136 126.066C221.513 128.879 216.096 130.285 209.882 130.285C203.669 130.285 198.252 128.879 193.629 126.066C189.006 123.223 185.502 119.355 183.117 114.462ZM187.666 97.8018C187.666 102.725 188.476 107.077 190.095 110.857C191.745 114.637 194.262 117.656 197.648 119.912C201.064 122.168 205.142 123.297 209.882 123.297C214.653 123.297 218.745 122.168 222.161 119.912C225.576 117.656 228.109 114.637 229.758 110.857C231.407 107.047 232.231 102.696 232.231 97.8018C232.231 92.8202 231.392 88.41 229.714 84.5711C228.064 80.7328 225.532 77.6846 222.117 75.428C218.731 73.172 214.653 72.0437 209.882 72.0437C202.786 72.0437 197.309 74.432 193.452 79.2082C189.595 83.956 187.666 90.1534 187.666 97.8018ZM248.97 91.8679V85.7581H257.936V81.4066C257.936 76.4539 259.335 72.6448 262.132 69.9776C264.959 67.2814 268.713 65.9343 273.395 65.9343H279.976L279.799 72.0437H274.102C271.216 72.0437 269.007 72.7617 267.477 74.1978C265.946 75.6041 265.18 77.6557 265.18 80.3509V85.7581H279.446V91.8679H266.151V129.407H258.82V91.8679H248.97ZM281.522 91.8679V85.7581H290.488V81.4066C290.488 76.4539 291.886 72.6448 294.684 69.9776C297.51 67.2814 301.265 65.9343 305.946 65.9343H312.572L312.394 72.0437H306.697C303.811 72.0437 301.589 72.7617 300.028 74.1978C298.497 75.6041 297.731 77.6557 297.731 80.3509V85.7581H311.997V91.8679H298.703V129.407H291.371V91.8679H281.522ZM349.539 115.736H356.783C355.782 120.278 353.544 123.839 350.069 126.418C346.624 128.996 342.325 130.285 337.173 130.285C331.107 130.285 326.043 128.146 321.979 123.868C317.916 119.59 315.884 114.198 315.884 107.692C315.884 101.069 317.828 95.6337 321.714 91.3846C325.631 87.1355 330.621 85.0107 336.687 85.0107C342.723 85.0107 347.611 86.9739 351.35 90.9008C355.09 94.8276 356.96 99.9852 356.96 106.373C356.96 107.926 356.871 108.967 356.695 109.494H323.304C323.304 113.539 324.659 116.967 327.367 119.78C330.106 122.594 333.375 124 337.173 124C340.53 124 343.283 123.282 345.432 121.846C347.582 120.41 348.951 118.374 349.539 115.736ZM349.628 104.219C349.628 100.41 348.435 97.3189 346.05 94.945C343.665 92.5417 340.603 91.3408 336.863 91.3408C333.095 91.3408 329.959 92.5417 327.456 94.945C324.983 97.3189 323.658 100.41 323.481 104.219H349.628ZM375.775 108.703V129.407H368.532V85.7581H375.421V96.3512C375.922 93.2453 377.438 90.7103 379.971 88.7467C382.503 86.7546 385.507 85.7581 388.981 85.7581H393.662L393.398 92.2195H389.864C385.389 92.2195 381.914 93.6551 379.441 96.5268C376.997 99.3701 375.775 103.428 375.775 108.703ZM406.427 83.78V74.0213H413.184V85.7581H425.684V91.8679H412.655V113.846C412.655 117.245 413.244 119.619 414.421 120.967C415.599 122.286 417.719 122.945 420.781 122.945H426.126V129.231C424.182 129.348 422.224 129.407 420.251 129.407C415.157 129.407 411.432 128.205 409.077 125.802C406.751 123.37 405.588 119.531 405.588 114.285V91.8679H396.357V85.7581H404.44C405.028 85.7581 405.5 85.5821 405.853 85.2305C406.236 84.8496 406.427 84.3663 406.427 83.78ZM465.876 115.736H473.12C472.119 120.278 469.882 123.839 466.406 126.418C462.961 128.996 458.662 130.285 453.51 130.285C447.444 130.285 442.379 128.146 438.316 123.868C434.252 119.59 432.221 114.198 432.221 107.692C432.221 101.069 434.164 95.6337 438.051 91.3846C441.967 87.1355 446.958 85.0107 453.024 85.0107C459.059 85.0107 463.948 86.9739 467.687 90.9008C471.426 94.8276 473.298 99.9852 473.298 106.373C473.298 107.926 473.209 108.967 473.031 109.494H439.641C439.641 113.539 440.995 116.967 443.704 119.78C446.443 122.594 449.711 124 453.51 124C456.866 124 459.62 123.282 461.769 121.846C463.918 120.41 465.288 118.374 465.876 115.736ZM465.965 104.219C465.965 100.41 464.772 97.3189 462.387 94.945C460.002 92.5417 456.939 91.3408 453.201 91.3408C449.431 91.3408 446.295 92.5417 443.793 94.945C441.319 97.3189 439.994 100.41 439.817 104.219H465.965ZM492.112 108.703V129.407H484.869V85.7581H491.756V96.3512C492.257 93.2453 493.773 90.7103 496.309 88.7467C498.84 86.7546 501.844 85.7581 505.316 85.7581H509.999L509.733 92.2195H506.2C501.727 92.2195 498.25 93.6551 495.775 96.5268C493.333 99.3701 492.112 103.428 492.112 108.703Z" fill="white"/>
</svg>
