<svg xmlns="http://www.w3.org/2000/svg" width="97.81" height="20.55" viewBox="0 0 97.81 20.55" fill="#1d1d1b">
    <path id="Path_148" d="M129.861 41.144a1.533 1.533 0 1 1 .454-1.089 1.485 1.485 0 0 1-.454 1.089z"
          transform="translate(-51.594 -21.205)"/>
    <path id="Path_149"
          d="M136.435 31.937q0 .364.481.59a6.4 6.4 0 0 0 1.171.4 12.078 12.078 0 0 1 1.379.435 2.7 2.7 0 0 1 1.171.88 2.437 2.437 0 0 1 .481 1.543 2.494 2.494 0 0 1-1.043 2.15 4.338 4.338 0 0 1-2.6.753 3.818 3.818 0 0 1-3.811-2.159l2.032-1.144a1.683 1.683 0 0 0 1.779 1.18q1.251 0 1.251-.781c0-.242-.16-.438-.481-.59a6.862 6.862 0 0 0-1.171-.408 12.221 12.221 0 0 1-1.379-.454 2.828 2.828 0 0 1-1.171-.862 2.265 2.265 0 0 1-.481-1.479 2.539 2.539 0 0 1 .988-2.115 3.882 3.882 0 0 1 2.459-.771 4.113 4.113 0 0 1 2.014.5 3.646 3.646 0 0 1 1.433 1.425l-2 1.089a1.494 1.494 0 0 0-1.452-.926 1.334 1.334 0 0 0-.753.2.621.621 0 0 0-.297.544z"
          transform="translate(-53.596 -18.277)"/>
    <path id="Path_150"
          d="M148.255 34.858a2.324 2.324 0 0 0 2.558 1.706 2.4 2.4 0 0 0 2.033-.908l1.887 1.089a4.5 4.5 0 0 1-3.956 1.941 4.882 4.882 0 0 1-3.612-1.361 4.787 4.787 0 0 1 3.429-8.22 4.327 4.327 0 0 1 3.294 1.379 4.791 4.791 0 0 1 1.3 3.411 5.414 5.414 0 0 1-.092.962zm-.036-1.814h4.627a2.193 2.193 0 0 0-.826-1.379 2.367 2.367 0 0 0-1.425-.454 2.462 2.462 0 0 0-1.561.481 2.288 2.288 0 0 0-.815 1.352z"
          transform="translate(-57.376 -18.276)"/>
    <path id="Path_151"
          d="M77.3 29.121a6.531 6.531 0 0 1-3.74 1 6.677 6.677 0 0 1-4.9-1.822 6.2 6.2 0 0 1-1.849-4.616 6.384 6.384 0 0 1 1.822-4.671 6.242 6.242 0 0 1 4.643-1.849 6.638 6.638 0 0 1 3.176.762 5.25 5.25 0 0 1 2.129 1.975l3.331-1.919a9.311 9.311 0 0 0-3.557-3.346 10.325 10.325 0 0 0-5.055-1.253 10.194 10.194 0 0 0-10.36 10.3 9.844 9.844 0 0 0 3.007 7.27 10.327 10.327 0 0 0 7.579 2.977 9.639 9.639 0 0 0 7-2.625 8.574 8.574 0 0 0 2.363-4.061h-3.932a4.925 4.925 0 0 1-1.657 1.878z"
          transform="translate(-31.582 -13.382)"/>
    <path id="Path_152" d="M87.933 28.763v-1.525h-9.908v3.444h9.751a11.612 11.612 0 0 0 .157-1.919z"
          transform="translate(-36.277 -17.695)"/>

    <path id="Path_155"
          d="M29.386 35.844a2.2 2.2 0 0 1-1.637.663H23.7v3.642h4.049a6.282 6.282 0 0 0 4.375-1.609 5.275 5.275 0 0 0 1.77-3.923H30a2.216 2.216 0 0 1-.614 1.227z"
          transform="translate(-19.366 -19.992)"/>
    <path id="Rectangle_41" transform="translate(0 .397)" d="M0 0h3.455v19.759H0z"/>
    <path id="Path_156"
          d="M27.156 17.6a2.015 2.015 0 0 1 1.524.621 2.089 2.089 0 0 1 .557 1.114h3.923a5.112 5.112 0 0 0-1.727-3.809 6.149 6.149 0 0 0-4.277-1.566H23.7v3.64z"
          transform="translate(-19.366 -13.562)"/>
    <path id="Path_157"
          d="M28.666 24.153a2.024 2.024 0 0 1-1.51.621H23.7v3.471h4.049A2.223 2.223 0 0 1 30 30.135h3.866a4.822 4.822 0 0 0-2.561-3.835 4.743 4.743 0 0 0 1.819-3.258h-3.888a2.06 2.06 0 0 1-.57 1.111z"
          transform="translate(-19.366 -16.388)"/>
    <path id="Path_158" class="cls-2" d="m50.77 25.532-.452-.868.452.87z" transform="translate(-27.652 -16.894)"/>
    <path id="Path_159"
          d="m47.045 22.2-.452-.87-3.846-7.373h-4.4L45.1 26.012v7.706h3.867v-7.706l.033-.063-1.955-3.749z"
          transform="translate(-23.926 -13.562)"/>
    <path id="Path_160" d="M59.892 13.959h-4.4l-3.798 7.291 1.974 3.785z" transform="translate(-28.08 -13.562)"/>
    <path id="Path_161"
          d="M111.131 27.247a4.921 4.921 0 0 1-1.66 1.874 6.531 6.531 0 0 1-3.74 1 6.677 6.677 0 0 1-4.9-1.822 6.2 6.2 0 0 1-1.849-4.616 6.384 6.384 0 0 1 1.822-4.671 6.242 6.242 0 0 1 4.643-1.849 6.638 6.638 0 0 1 3.176.762 5.248 5.248 0 0 1 2.13 1.976l3.331-1.919a9.311 9.311 0 0 0-3.557-3.346 10.325 10.325 0 0 0-5.052-1.256 10.194 10.194 0 0 0-10.36 10.3 9.844 9.844 0 0 0 3.007 7.27 10.327 10.327 0 0 0 7.579 2.977 9.639 9.639 0 0 0 7-2.625 8.574 8.574 0 0 0 2.363-4.061h-3.934z"
          transform="translate(-41.597 -13.382)"/>
    <path id="Path_162" d="M119.95 30.682a11.612 11.612 0 0 0 .157-1.919v-1.525H110.2v3.444h9.751z"
          transform="translate(-46.293 -17.695)"/>
</svg>
