<svg width="3295" height="330" viewBox="0 0 3295 330" fill="none" xmlns="http://www.w3.org/2000/svg">
<path d="M296.666 259.226H156.421V292.251H330.596V109.029L188.542 0L46.9404 109.029V183.222H79.5133V125.315L188.542 40.7161L296.666 125.315V259.226Z" fill="white"/>
<path d="M126.768 211.29L136.914 210.998L136.693 245.498L126.44 245.895C126.095 244.698 123.726 242.826 122.584 242.039C112.846 235.709 106.991 242.635 102.413 247.642C98.7501 251.648 97.6837 259.093 97.7649 262.583H89.3743L89.3743 319.168L68.0143 319.168L68.0144 262.583H61.2372C62.2832 254.895 63.7397 244.967 57.2054 238.433C41.4656 225.036 17.6973 242.592 12.164 249.839C7.73739 255.637 7.97322 253.458 8.64447 251.644C25.4296 205.209 76.2253 203.988 99.525 209.182C112.648 226.395 123.155 217.759 126.768 211.29Z" fill="white"/>
<path d="M421.6 224.424V105.424H500.31C510.963 105.424 519.917 107.01 527.17 110.184C534.423 113.357 539.807 117.777 543.32 123.444C546.947 129.11 548.76 135.57 548.76 142.824C548.76 149.51 547.287 155.574 544.34 161.014C541.393 166.34 537.313 170.534 532.1 173.594C527 176.654 521.39 178.184 515.27 178.184H508.13L518.16 169.174V189.404L514.25 180.904H515.95C520.71 180.904 524.677 181.47 527.85 182.604C531.023 183.624 533.8 185.494 536.18 188.214C538.673 190.934 541.11 194.844 543.49 199.944L554.88 224.424H518.84L505.92 193.824C504.673 191.104 503.2 188.95 501.5 187.364C499.913 185.777 497.873 184.7 495.38 184.134C492.887 183.454 489.713 183.114 485.86 183.114H442.68V164.074H497.42C501.953 164.074 505.807 163.337 508.98 161.864C512.153 160.39 514.533 158.35 516.12 155.744C517.707 153.137 518.5 150.077 518.5 146.564C518.5 143.164 517.707 140.16 516.12 137.554C514.533 134.834 512.153 132.794 508.98 131.434C505.807 129.96 501.953 129.224 497.42 129.224H450.33V176.824L451.86 177.164V224.424H421.6ZM572.674 224.424V105.424H690.824V129.224H602.934V200.624H690.824V224.424H572.674ZM599.194 174.614V153.364H678.924V174.614H599.194ZM714.12 224.424V105.424H761.21L824.79 206.404H827.68C826.206 201.53 825.073 196.77 824.28 192.124C823.6 187.477 823.26 181.81 823.26 175.124V105.424H852.33V224.424H805.24L741.66 123.444H738.77C740.243 128.317 741.32 133.077 742 137.724C742.793 142.37 743.19 148.037 743.19 154.724V224.424H714.12ZM953.421 226.634C936.534 226.634 922.141 223.97 910.241 218.644C898.341 213.317 889.388 206.007 883.381 196.714C877.374 187.307 874.371 176.71 874.371 164.924C874.371 153.137 877.374 142.597 883.381 133.304C889.388 123.897 898.341 116.53 910.241 111.204C922.141 105.877 936.534 103.214 953.421 103.214C970.308 103.214 984.701 105.877 996.601 111.204C1008.5 116.53 1017.45 123.897 1023.46 133.304C1029.47 142.597 1032.47 153.137 1032.47 164.924C1032.47 176.71 1029.47 187.307 1023.46 196.714C1017.45 206.007 1008.5 213.317 996.601 218.644C984.701 223.97 970.308 226.634 953.421 226.634ZM953.421 201.984C963.961 201.984 972.858 200.397 980.111 197.224C987.478 193.937 992.974 189.517 996.601 183.964C1000.34 178.297 1002.21 171.95 1002.21 164.924C1002.21 157.897 1000.34 151.607 996.601 146.054C992.974 140.387 987.478 135.967 980.111 132.794C972.858 129.507 963.961 127.864 953.421 127.864C942.881 127.864 933.928 129.507 926.561 132.794C919.308 135.967 913.811 140.387 910.071 146.054C906.444 151.607 904.631 157.897 904.631 164.924C904.631 171.95 906.444 178.297 910.071 183.964C913.811 189.517 919.308 193.937 926.561 197.224C933.928 200.397 942.881 201.984 953.421 201.984ZM1092.18 224.424L1037.1 105.424H1071.1L1103.4 181.414C1103.74 182.434 1104.08 183.397 1104.42 184.304C1104.76 185.21 1105.1 186.06 1105.44 186.854C1106.91 191.047 1107.93 194.504 1108.5 197.224C1109.07 199.944 1109.35 202.834 1109.35 205.894V206.404H1112.07V205.894C1112.07 202.267 1112.47 198.81 1113.26 195.524C1114.05 192.124 1115.64 187.42 1118.02 181.414L1150.32 105.424H1184.15L1129.07 224.424H1092.18ZM1200.71 224.424V105.424H1318.86V129.224H1230.97V200.624H1318.86V224.424H1200.71ZM1227.23 174.614V153.364H1306.96V174.614H1227.23ZM1342.16 224.424V105.424H1420.87C1431.52 105.424 1440.47 107.01 1447.73 110.184C1454.98 113.357 1460.36 117.777 1463.88 123.444C1467.5 129.11 1469.32 135.57 1469.32 142.824C1469.32 149.51 1467.84 155.574 1464.9 161.014C1461.95 166.34 1457.87 170.534 1452.66 173.594C1447.56 176.654 1441.95 178.184 1435.83 178.184H1428.69L1438.72 169.174V189.404L1434.81 180.904H1436.51C1441.27 180.904 1445.23 181.47 1448.41 182.604C1451.58 183.624 1454.36 185.494 1456.74 188.214C1459.23 190.934 1461.67 194.844 1464.05 199.944L1475.44 224.424H1439.4L1426.48 193.824C1425.23 191.104 1423.76 188.95 1422.06 187.364C1420.47 185.777 1418.43 184.7 1415.94 184.134C1413.44 183.454 1410.27 183.114 1406.42 183.114H1363.24V164.074H1417.98C1422.51 164.074 1426.36 163.337 1429.54 161.864C1432.71 160.39 1435.09 158.35 1436.68 155.744C1438.26 153.137 1439.06 150.077 1439.06 146.564C1439.06 143.164 1438.26 140.16 1436.68 137.554C1435.09 134.834 1432.71 132.794 1429.54 131.434C1426.36 129.96 1422.51 129.224 1417.98 129.224H1370.89V176.824L1372.42 177.164V224.424H1342.16ZM1486 224.424V200.114H1523.23V129.734H1486V105.424H1590.72V129.734H1553.49V200.114H1590.72V224.424H1486ZM1614.09 224.424V105.424H1661.18L1724.76 206.404H1727.65C1726.18 201.53 1725.04 196.77 1724.25 192.124C1723.57 187.477 1723.23 181.81 1723.23 175.124V105.424H1752.3V224.424H1705.21L1641.63 123.444H1638.74C1640.21 128.317 1641.29 133.077 1641.97 137.724C1642.76 142.37 1643.16 148.037 1643.16 154.724V224.424H1614.09ZM1846.25 226.634C1831.63 226.634 1818.88 223.97 1808 218.644C1797.12 213.204 1788.79 205.78 1783.01 196.374C1777.23 186.967 1774.34 176.484 1774.34 164.924C1774.34 153.137 1777.29 142.597 1783.18 133.304C1789.19 123.897 1797.97 116.53 1809.53 111.204C1821.21 105.877 1835.15 103.214 1851.35 103.214C1866.99 103.214 1880.25 105.424 1891.13 109.844C1902.13 114.15 1910.74 120.044 1916.97 127.524C1923.21 135.004 1927.34 143.504 1929.38 153.024H1899.12C1897.31 148.037 1894.42 143.674 1890.45 139.934C1886.49 136.08 1881.22 133.077 1874.64 130.924C1868.18 128.657 1860.42 127.524 1851.35 127.524C1841.38 127.524 1832.82 129.167 1825.68 132.454C1818.54 135.627 1813.16 140.047 1809.53 145.714C1805.91 151.38 1804.09 157.784 1804.09 164.924C1804.09 172.404 1805.91 179.034 1809.53 184.814C1813.16 190.594 1818.54 195.127 1825.68 198.414C1832.82 201.587 1841.49 203.174 1851.69 203.174C1862.69 203.174 1871.75 201.53 1878.89 198.244C1886.15 194.844 1891.47 190.594 1894.87 185.494C1898.27 180.28 1899.97 174.954 1899.97 169.514L1907.28 181.924H1840.3V162.884H1925.98V224.424H1899.46L1904.73 197.734H1902.01C1899.52 202.947 1895.95 207.707 1891.3 212.014C1886.66 216.32 1880.54 219.834 1872.94 222.554C1865.46 225.274 1856.57 226.634 1846.25 226.634ZM2017.41 226.634C1992.93 226.634 1975.03 222.61 1963.69 214.564C1952.36 206.404 1946.69 195.41 1946.69 181.584V179.374H1977.46V180.904C1977.46 187.93 1980.52 193.484 1986.64 197.564C1992.88 201.644 2003.13 203.684 2017.41 203.684C2027.73 203.684 2035.83 203.06 2041.72 201.814C2047.62 200.454 2051.64 198.64 2053.79 196.374C2056.06 194.107 2057.19 191.5 2057.19 188.554C2057.19 184.36 2055.27 181.244 2051.41 179.204C2047.67 177.05 2042.97 175.634 2037.3 174.954C2031.64 174.16 2023.87 173.537 2014.01 173.084C2000.07 172.517 1988.68 171.497 1979.84 170.024C1971 168.55 1963.41 165.434 1957.06 160.674C1950.72 155.914 1947.54 148.774 1947.54 139.254C1947.54 128.374 1952.93 119.647 1963.69 113.074C1974.46 106.5 1992.31 103.214 2017.24 103.214C2033.45 103.214 2046.77 105.14 2057.19 108.994C2067.62 112.734 2075.21 117.834 2079.97 124.294C2084.73 130.754 2087.11 138.177 2087.11 146.564V147.924H2056.34V146.564C2056.34 142.71 2055.04 139.254 2052.43 136.194C2049.94 133.134 2045.75 130.697 2039.85 128.884C2034.07 127.07 2026.54 126.164 2017.24 126.164C2002.62 126.164 1992.48 127.524 1986.81 130.244C1981.15 132.85 1978.31 136.307 1978.31 140.614C1978.31 144.24 1980.01 146.96 1983.41 148.774C1986.93 150.474 1991.29 151.607 1996.5 152.174C2001.72 152.74 2009.08 153.194 2018.6 153.534C2032.88 153.987 2044.61 154.95 2053.79 156.424C2063.09 157.784 2071.08 160.957 2077.76 165.944C2084.56 170.93 2087.96 178.467 2087.96 188.554C2087.96 200.114 2082.47 209.35 2071.47 216.264C2060.48 223.177 2042.46 226.634 2017.41 226.634ZM2184.26 226.634C2167.37 226.634 2152.98 223.97 2141.08 218.644C2129.18 213.317 2120.23 206.007 2114.22 196.714C2108.21 187.307 2105.21 176.71 2105.21 164.924C2105.21 153.137 2108.21 142.597 2114.22 133.304C2120.23 123.897 2129.18 116.53 2141.08 111.204C2152.98 105.877 2167.37 103.214 2184.26 103.214C2201.15 103.214 2215.54 105.877 2227.44 111.204C2239.34 116.53 2248.29 123.897 2254.3 133.304C2260.31 142.597 2263.31 153.137 2263.31 164.924C2263.31 176.71 2260.31 187.307 2254.3 196.714C2248.29 206.007 2239.34 213.317 2227.44 218.644C2215.54 223.97 2201.15 226.634 2184.26 226.634ZM2184.26 201.984C2194.8 201.984 2203.7 200.397 2210.95 197.224C2218.32 193.937 2223.81 189.517 2227.44 183.964C2231.18 178.297 2233.05 171.95 2233.05 164.924C2233.05 157.897 2231.18 151.607 2227.44 146.054C2223.81 140.387 2218.32 135.967 2210.95 132.794C2203.7 129.507 2194.8 127.864 2184.26 127.864C2173.72 127.864 2164.77 129.507 2157.4 132.794C2150.15 135.967 2144.65 140.387 2140.91 146.054C2137.28 151.607 2135.47 157.897 2135.47 164.924C2135.47 171.95 2137.28 178.297 2140.91 183.964C2144.65 189.517 2150.15 193.937 2157.4 197.224C2164.77 200.397 2173.72 201.984 2184.26 201.984ZM2285.46 224.424V105.424H2400.21V129.734H2315.72V224.424H2285.46ZM2311.98 183.794V160.844H2388.31V183.794H2311.98ZM2421.92 224.424V105.424H2536.67V129.734H2452.18V224.424H2421.92ZM2448.44 183.794V160.844H2524.77V183.794H2448.44ZM2558.39 224.424V105.424H2676.54V129.224H2588.65V200.624H2676.54V224.424H2558.39ZM2584.91 174.614V153.364H2664.64V174.614H2584.91ZM2699.83 224.424V105.424H2778.54C2789.2 105.424 2798.15 107.01 2805.4 110.184C2812.66 113.357 2818.04 117.777 2821.55 123.444C2825.18 129.11 2826.99 135.57 2826.99 142.824C2826.99 149.51 2825.52 155.574 2822.57 161.014C2819.63 166.34 2815.55 170.534 2810.33 173.594C2805.23 176.654 2799.62 178.184 2793.5 178.184H2786.36L2796.39 169.174V189.404L2792.48 180.904H2794.18C2798.94 180.904 2802.91 181.47 2806.08 182.604C2809.26 183.624 2812.03 185.494 2814.41 188.214C2816.91 190.934 2819.34 194.844 2821.72 199.944L2833.11 224.424H2797.07L2784.15 193.824C2782.91 191.104 2781.43 188.95 2779.73 187.364C2778.15 185.777 2776.11 184.7 2773.61 184.134C2771.12 183.454 2767.95 183.114 2764.09 183.114H2720.91V164.074H2775.65C2780.19 164.074 2784.04 163.337 2787.21 161.864C2790.39 160.39 2792.77 158.35 2794.35 155.744C2795.94 153.137 2796.73 150.077 2796.73 146.564C2796.73 143.164 2795.94 140.16 2794.35 137.554C2792.77 134.834 2790.39 132.794 2787.21 131.434C2784.04 129.96 2780.19 129.224 2775.65 129.224H2728.56V176.824L2730.09 177.164V224.424H2699.83ZM2884.99 224.424V130.584H2836.03V105.424H2964.21V130.584H2915.25V224.424H2884.99ZM2971.13 226.634C2966.48 226.634 2962.68 225.274 2959.74 222.554C2956.79 219.72 2955.32 216.15 2955.32 211.844C2955.32 209.01 2955.94 206.517 2957.19 204.364C2958.55 202.097 2960.42 200.34 2962.8 199.094C2965.18 197.734 2967.95 197.054 2971.13 197.054C2975.89 197.054 2979.74 198.47 2982.69 201.304C2985.63 204.024 2987.11 207.537 2987.11 211.844C2987.11 214.677 2986.43 217.227 2985.07 219.494C2983.71 221.647 2981.84 223.347 2979.46 224.594C2977.08 225.954 2974.3 226.634 2971.13 226.634ZM3073.27 226.634C3048.79 226.634 3030.89 222.61 3019.55 214.564C3008.22 206.404 3002.55 195.41 3002.55 181.584V179.374H3033.32V180.904C3033.32 187.93 3036.38 193.484 3042.5 197.564C3048.74 201.644 3058.99 203.684 3073.27 203.684C3083.59 203.684 3091.69 203.06 3097.58 201.814C3103.48 200.454 3107.5 198.64 3109.65 196.374C3111.92 194.107 3113.05 191.5 3113.05 188.554C3113.05 184.36 3111.13 181.244 3107.27 179.204C3103.53 177.05 3098.83 175.634 3093.16 174.954C3087.5 174.16 3079.73 173.537 3069.87 173.084C3055.93 172.517 3044.54 171.497 3035.7 170.024C3026.86 168.55 3019.27 165.434 3012.92 160.674C3006.58 155.914 3003.4 148.774 3003.4 139.254C3003.4 128.374 3008.79 119.647 3019.55 113.074C3030.32 106.5 3048.17 103.214 3073.1 103.214C3089.31 103.214 3102.63 105.14 3113.05 108.994C3123.48 112.734 3131.07 117.834 3135.83 124.294C3140.59 130.754 3142.97 138.177 3142.97 146.564V147.924H3112.2V146.564C3112.2 142.71 3110.9 139.254 3108.29 136.194C3105.8 133.134 3101.61 130.697 3095.71 128.884C3089.93 127.07 3082.4 126.164 3073.1 126.164C3058.48 126.164 3048.34 127.524 3042.67 130.244C3037.01 132.85 3034.17 136.307 3034.17 140.614C3034.17 144.24 3035.87 146.96 3039.27 148.774C3042.79 150.474 3047.15 151.607 3052.36 152.174C3057.58 152.74 3064.94 153.194 3074.46 153.534C3088.74 153.987 3100.47 154.95 3109.65 156.424C3118.95 157.784 3126.94 160.957 3133.62 165.944C3140.42 170.93 3143.82 178.467 3143.82 188.554C3143.82 200.114 3138.33 209.35 3127.33 216.264C3116.34 223.177 3098.32 226.634 3073.27 226.634ZM3166.17 224.424V105.424H3284.32V129.224H3196.43V200.624H3284.32V224.424H3166.17ZM3192.69 174.614V153.364H3272.42V174.614H3192.69Z" fill="white"/>
</svg>
